<?xml version="1.0" encoding="iso-8859-1"?>
<!-- Generator: Adobe Illustrator 16.0.0, SVG Export Plug-In . SVG Version: 6.00 Build 0)  -->
<!DOCTYPE svg PUBLIC "-//W3C//DTD SVG 1.1//EN" "http://www.w3.org/Graphics/SVG/1.1/DTD/svg11.dtd">
<svg version="1.1" id="Capa_1" xmlns="http://www.w3.org/2000/svg" xmlns:xlink="http://www.w3.org/1999/xlink" x="0px" y="0px"
	 width="611.988px" height="611.988px" viewBox="0 0 611.988 611.988" fill="#fff" style="enable-background:new 0 0 611.988 611.988;"
	 xml:space="preserve">
<g>
	<g id="_x36__23_">
		<g>
			<path d="M45.343,181.859h45.344l74.59,93.249l59.196-73.388L136.03,91.172H45.343C20.291,91.172,0,111.463,0,136.516
				S20.291,181.859,45.343,181.859z M476.105,181.859v38.27c6.757,6.688,27.887,9.477,34.643,2.789l96.174-72.708
				c6.756-6.688,6.756-17.548,0-24.236l-96.174-72.708c-6.756-6.711-27.886-10.565-34.643-3.877v41.807H362.747L90.687,431.271
				H45.343C20.291,431.271,0,451.562,0,476.614c0,25.052,20.291,45.343,45.343,45.343h90.687l272.061-340.075h68.015V181.859z
				 M510.748,389.668c-6.756-6.688-27.886-4.92-34.643,1.769v39.812h-68.015l-74.59-93.249l-59.196,73.389l88.442,110.547h113.358
				v40.378c6.757,6.688,27.887,3.719,34.643-2.97l96.174-72.708c6.756-6.688,6.756-17.548,0-24.236L510.748,389.668z"/>
		</g>
	</g>
</g>
<g>
</g>
<g>
</g>
<g>
</g>
<g>
</g>
<g>
</g>
<g>
</g>
<g>
</g>
<g>
</g>
<g>
</g>
<g>
</g>
<g>
</g>
<g>
</g>
<g>
</g>
<g>
</g>
<g>
</g>
</svg>
